<svg width="529" height="647" viewBox="0 0 529 647" fill="none" xmlns="http://www.w3.org/2000/svg">
<ellipse cx="264" cy="616.422" rx="80.3672" ry="29.83" fill="#F3F8EF"/>
<path d="M310.507 100.237C310.838 97.0092 313.672 94.6264 316.908 94.8779C356.049 97.9203 397.82 103.262 429.868 114.623C432.516 115.561 434.08 118.26 433.67 121.039L424.668 181.978C424.115 185.723 420.29 188.06 416.688 186.896C399.328 181.284 352.289 167.417 310.505 167.114C306.877 167.087 303.987 163.983 304.357 160.374L310.507 100.237Z" fill="#659A3D"/>
<path d="M310.507 100.237C310.838 97.0092 313.672 94.6264 316.908 94.8779C356.049 97.9203 397.82 103.262 429.868 114.623C432.516 115.561 434.08 118.26 433.67 121.039L424.668 181.978C424.115 185.723 420.29 188.06 416.688 186.896C399.328 181.284 352.289 167.417 310.505 167.114C306.877 167.087 303.987 163.983 304.357 160.374L310.507 100.237Z" fill="#EFEFEF"/>
<path opacity="0.8" d="M409.011 175.948C413.05 176.745 416.268 172.593 414.488 168.881L394.993 128.218C393.545 125.197 389.594 124.427 387.117 126.683L368.035 144.067C365.729 146.167 362.084 145.667 360.429 143.022L354.498 133.542C352.926 131.031 349.528 130.429 347.19 132.247L323.534 150.64C320.15 153.272 321.43 158.663 325.635 159.493L409.011 175.948Z" fill="#939393"/>
<g opacity="0.8">
<path d="M360.753 110.038C360.356 112.215 360.839 114.46 362.097 116.279C363.354 118.099 365.283 119.344 367.459 119.742C368.537 119.939 369.643 119.922 370.713 119.691C371.784 119.461 372.799 119.021 373.7 118.399C374.602 117.776 375.371 116.981 375.965 116.061C376.56 115.141 376.967 114.112 377.163 113.034C377.36 111.956 377.342 110.851 377.112 109.78C376.881 108.709 376.441 107.694 375.818 106.793C375.195 105.892 374.401 105.122 373.481 104.528C372.56 103.934 371.532 103.527 370.454 103.331C368.278 102.934 366.034 103.417 364.215 104.675C362.395 105.933 361.15 107.862 360.753 110.038Z" fill="#939393"/>
</g>
<path d="M279.181 46.6597C280.312 46.8995 281.425 47.2147 282.513 47.6034C289.996 50.2802 295.511 56.3369 302.952 59.0137C307.768 60.7442 313.032 62.0564 316.832 65.7082C318.463 67.2999 319.713 69.2393 320.489 71.3815C321.266 73.5238 321.549 75.8136 321.317 78.0805C320.996 81.0135 319.563 84.4877 320.726 87.3893C321.853 90.2046 325.057 91.5717 327.522 92.999C331.557 95.3516 335.255 98.5591 337.249 102.781C339.244 107.002 339.262 112.343 336.481 116.094C335.297 117.694 333.606 119.111 333.374 121.087C333.141 123.063 334.466 124.781 335.428 126.493C337.43 130.058 338.041 134.596 336.162 138.256C333.217 143.989 327.509 142.87 322.279 142.146C310.604 140.528 298.362 139.793 286.951 136.774C284.361 136.092 281.74 135.192 279.735 133.412C277.205 131.167 275.985 127.808 275.164 124.524C273.452 117.67 273.073 110.565 272.459 103.526C271.605 93.697 270.28 83.9239 268.484 74.2066C267.595 69.3985 266.594 64.6138 265.481 59.8528C264.851 57.1655 262.242 51.8041 264.772 49.4959C268.583 45.9957 274.192 45.6037 279.181 46.6597Z" fill="#1A2E35"/>
<path d="M104.895 121.523C104.035 118.39 105.828 115.14 108.936 114.194C146.68 102.706 179.646 93.1307 222.145 92.63C225.219 92.5937 227.787 94.9405 228.084 98.0002L234.201 160.904C234.524 164.222 232.059 167.167 228.739 167.473C186.406 171.369 169.066 174.829 130.072 188.697C126.773 189.87 123.145 188.01 122.218 184.634L104.895 121.523Z" fill="#659A3D"/>
<path d="M104.895 121.523C104.035 118.39 105.828 115.14 108.936 114.194C146.68 102.706 179.646 93.1307 222.145 92.63C225.219 92.5937 227.787 94.9405 228.084 98.0002L234.201 160.904C234.524 164.222 232.059 167.167 228.739 167.473C186.406 171.369 169.066 174.829 130.072 188.697C126.773 189.87 123.145 188.01 122.218 184.634L104.895 121.523Z" fill="#EFEFEF"/>
<path opacity="0.8" d="M219.424 164.244C223.493 163.627 225.116 158.632 222.185 155.741L190.082 124.076C187.697 121.724 183.718 122.336 182.151 125.297L170.077 148.114C168.618 150.871 165.018 151.633 162.567 149.705L153.779 142.792C151.451 140.961 148.049 141.544 146.464 144.046L130.429 169.362C128.135 172.983 131.163 177.623 135.402 176.981L219.424 164.244Z" fill="#939393"/>
<g opacity="0.8">
<path d="M151.711 118.559C152.074 120.741 153.289 122.69 155.088 123.976C156.888 125.262 159.124 125.781 161.306 125.419C162.386 125.239 163.421 124.848 164.35 124.269C165.28 123.69 166.086 122.933 166.723 122.042C167.36 121.151 167.816 120.143 168.063 119.076C168.311 118.009 168.346 116.903 168.166 115.822C167.987 114.742 167.597 113.707 167.017 112.777C166.438 111.848 165.681 111.041 164.79 110.404C163.899 109.767 162.892 109.311 161.825 109.064C160.758 108.816 159.652 108.781 158.572 108.96C156.39 109.324 154.441 110.539 153.154 112.339C151.868 114.139 151.349 116.377 151.711 118.559V118.559Z" fill="#939393"/>
</g>
<path d="M401.76 415.29C404.052 412.87 407.458 411.955 410.586 410.802C424.328 405.741 435.415 393.947 439.597 379.912C443.779 365.877 440.998 349.937 432.279 338.166L432.752 335.729C433.821 324.4 447.5 316.278 457.957 320.764C468.414 325.25 471.958 340.759 464.491 349.343C476.762 350.357 484.877 364.343 483.142 376.529C481.406 388.716 472.491 398.728 462.56 406.005C446.116 417.993 426.331 424.53 405.984 424.698C404.606 424.698 403.158 424.667 401.967 423.974C399.094 422.307 399.468 417.714 401.76 415.29Z" fill="#D8E8CA"/>
<path d="M59.9286 365.698C57.1085 361.123 56.7112 354.949 59.5731 350.4C62.435 345.852 68.7207 343.546 73.5976 345.794C70.8664 341.233 72.4633 334.611 76.9769 331.799C81.4906 328.986 88.1395 330.468 91.0275 334.935C94.2945 339.983 92.5669 346.754 89.7599 352.071C86.9529 357.388 83.1084 362.383 82.1805 368.322C81.237 374.392 83.5632 380.608 87.1934 385.556C90.8237 390.505 95.6692 394.416 100.457 398.261L101.372 399.139C97.0547 400.609 92.4793 401.166 87.9354 400.775C83.3916 400.385 78.9784 399.055 74.975 396.87C70.4665 394.376 66.2926 390.251 65.9973 385.107C65.8326 382.231 66.9042 379.356 66.4678 376.512C65.8379 372.301 62.1632 369.323 59.9286 365.698Z" fill="#D8E8CA"/>
<path d="M307.151 553.681C311.62 553.127 316.113 551.166 318.74 547.509C320.423 545.169 321.233 542.315 322.699 539.832C324.165 537.348 326.698 535.103 329.565 535.388C334.008 535.822 337.006 541.965 341.326 540.877C343.94 540.226 345.168 537.168 345.186 534.483C345.205 531.799 344.421 529.124 344.755 526.463C345.693 518.979 355.301 515.301 362.47 517.641C369.639 519.98 380.524 528.62 385.208 534.546C380.297 542.717 370.211 545.894 360.964 548.212C345.442 552.104 329.787 555.405 314.001 558.117C310.303 558.749 306.524 559.353 302.815 558.77C299.106 558.187 295.424 556.219 293.712 552.878C298.15 553.55 302.682 554.227 307.151 553.681Z" fill="#D8E8CA"/>
<path d="M129.169 496.012C130.309 489.618 136.686 483.987 143.021 485.462C137.775 481.141 137.747 472.446 141.892 467.062C146.037 461.677 153.24 459.35 160.033 459.554C166.825 459.758 173.344 462.142 179.65 464.675C176.561 460.735 181.085 454.603 186.08 454.274C191.074 453.944 195.538 457.123 199.589 460.066C203.64 463.01 208.321 466 213.269 465.229L208.616 467.082C197.527 468.763 186.344 471.356 176.731 477.154C167.118 482.952 159.22 492.397 157.56 503.491C155.901 514.585 161.742 527.017 172.264 530.889C158.078 531.772 143.635 525.25 134.914 514.025C130.923 508.899 128.029 502.403 129.169 496.012Z" fill="#D8E8CA"/>
<path d="M493.646 330.216C493.813 330.216 493.946 325.422 493.946 319.499C493.946 313.575 493.813 308.781 493.646 308.781C493.478 308.781 493.348 313.575 493.348 319.499C493.348 325.422 493.471 330.216 493.646 330.216Z" fill="#E0E0E0"/>
<path d="M482.566 319.505C482.566 319.672 487.532 319.806 493.635 319.806C499.738 319.806 504.706 319.672 504.706 319.505C504.706 319.338 499.74 319.207 493.635 319.207C487.53 319.207 482.566 319.34 482.566 319.505Z" fill="#E0E0E0"/>
<path d="M66.5872 440.295C66.7544 440.295 66.8877 435.498 66.8877 429.577C66.8877 423.656 66.7544 418.859 66.5872 418.859C66.4199 418.859 66.2892 423.654 66.2892 429.577C66.2892 435.5 66.4121 440.295 66.5872 440.295Z" fill="#E0E0E0"/>
<path d="M55.5088 429.586C55.5088 429.75 60.4746 429.884 66.5773 429.884C72.68 429.884 77.6484 429.75 77.6484 429.586C77.6484 429.421 72.6826 429.285 66.5773 429.285C60.472 429.285 55.5088 429.421 55.5088 429.586Z" fill="#E0E0E0"/>
<path d="M131.54 72.7633C131.705 72.7633 131.838 67.9692 131.838 62.0457C131.838 56.1223 131.705 51.3281 131.54 51.3281C131.375 51.3281 131.239 56.1223 131.239 62.0457C131.239 67.9692 131.375 72.7633 131.54 72.7633Z" fill="#E0E0E0"/>
<path d="M120.471 62.0582C120.471 62.2229 125.437 62.3563 131.54 62.3563C137.643 62.3563 142.608 62.2229 142.608 62.0582C142.608 61.8935 137.643 61.7576 131.54 61.7576C125.437 61.7576 120.471 61.8909 120.471 62.0582Z" fill="#E0E0E0"/>
<path d="M481.32 236.146C477.705 236.146 474.775 233.215 474.775 229.6C474.775 225.985 477.705 223.055 481.32 223.055C484.934 223.055 487.864 225.985 487.864 229.6C487.864 233.215 484.934 236.146 481.32 236.146Z" fill="#659A3D"/>
<path d="M220.234 508.312C220.234 510.046 220.922 511.708 222.148 512.934C223.373 514.159 225.035 514.848 226.768 514.848C228.501 514.848 230.163 514.159 231.388 512.934C232.613 511.708 233.302 510.046 233.302 508.312C233.302 506.579 232.613 504.917 231.388 503.691C230.163 502.466 228.501 501.777 226.768 501.777C225.035 501.777 223.373 502.466 222.148 503.691C220.922 504.917 220.234 506.579 220.234 508.312Z" fill="#659A3D"/>
<path d="M159.348 384.633C159.348 386.366 160.037 388.028 161.262 389.254C162.487 390.479 164.149 391.168 165.882 391.168C167.615 391.168 169.277 390.479 170.502 389.254C171.728 388.028 172.416 386.366 172.416 384.633C172.416 382.9 171.728 381.237 170.502 380.012C169.277 378.786 167.615 378.098 165.882 378.098C164.149 378.098 162.487 378.786 161.262 380.012C160.037 381.237 159.348 382.9 159.348 384.633Z" fill="#659A3D"/>
<path d="M353.754 58.75C353.754 60.4832 354.443 62.1454 355.668 63.371C356.893 64.5966 358.555 65.2851 360.288 65.2851C362.021 65.2851 363.683 64.5966 364.909 63.371C366.134 62.1454 366.822 60.4832 366.822 58.75C366.822 57.0167 366.134 55.3545 364.909 54.1289C363.683 52.9033 362.021 52.2148 360.288 52.2148C358.555 52.2148 356.893 52.9033 355.668 54.1289C354.443 55.3545 353.754 57.0167 353.754 58.75Z" fill="#659A3D"/>
<path d="M326.027 449.182C324.219 449.182 322.754 447.717 322.754 445.909C322.754 444.102 324.219 442.637 326.027 442.637C327.834 442.637 329.299 444.102 329.299 445.909C329.299 447.717 327.834 449.182 326.027 449.182Z" fill="#659A3D"/>
<path d="M401.695 429.585C401.696 430.453 402.041 431.285 402.654 431.899C403.268 432.513 404.099 432.858 404.967 432.858C405.835 432.858 406.667 432.513 407.28 431.899C407.894 431.285 408.239 430.453 408.239 429.585C408.239 428.718 407.894 427.886 407.28 427.272C406.667 426.658 405.835 426.313 404.967 426.313C404.099 426.313 403.268 426.658 402.654 427.272C402.041 427.886 401.696 428.718 401.695 429.585V429.585Z" fill="#659A3D"/>
<path d="M321.045 65.2962C321.045 66.1635 321.39 66.9953 322.003 67.6085C322.616 68.2218 323.448 68.5663 324.315 68.5663C324.744 68.5667 325.17 68.4824 325.567 68.3182C325.964 68.154 326.325 67.9131 326.628 67.6094C326.932 67.3057 327.173 66.9452 327.338 66.5482C327.502 66.1513 327.587 65.7259 327.587 65.2962C327.587 64.8663 327.503 64.4406 327.339 64.0433C327.174 63.6461 326.933 63.2852 326.629 62.9812C326.325 62.6773 325.965 62.4362 325.567 62.2718C325.17 62.1075 324.745 62.0231 324.315 62.0234C323.885 62.0234 323.46 62.1081 323.063 62.2726C322.666 62.4371 322.306 62.6782 322.002 62.9821C321.698 63.2861 321.457 63.6469 321.293 64.044C321.129 64.441 321.045 64.8666 321.045 65.2962V65.2962Z" fill="#659A3D"/>
<path d="M176.924 242.347C176.925 243.215 177.27 244.046 177.884 244.66C178.497 245.273 179.329 245.617 180.197 245.617C181.064 245.617 181.896 245.273 182.509 244.66C183.123 244.046 183.468 243.215 183.469 242.347C183.469 241.917 183.384 241.492 183.22 241.095C183.055 240.698 182.814 240.337 182.51 240.033C182.207 239.729 181.846 239.488 181.449 239.323C181.052 239.159 180.626 239.074 180.197 239.074C179.767 239.074 179.341 239.159 178.944 239.323C178.547 239.488 178.187 239.729 177.883 240.033C177.579 240.337 177.338 240.698 177.173 241.095C177.009 241.492 176.924 241.917 176.924 242.347V242.347Z" fill="#659A3D"/>
<path d="M196.242 80.3315C194.151 68.3539 188.446 50.8476 181.606 40.7966C174.766 30.7455 164.226 22.7597 152.185 21.0867C140.144 19.4137 126.86 25.0653 121.436 35.9476C118.53 41.7795 117.994 48.4949 115.875 54.651C113.755 60.8071 109.106 66.9736 102.608 67.4598C96.8583 67.9016 91.3149 63.7531 85.6539 64.8458C78.281 66.2809 75.4348 75.37 75.393 82.8827C75.3512 90.3955 76.4227 98.7316 71.8072 104.658C68.0305 109.507 61.562 111.177 56.3479 114.429C45.0729 121.463 40.2456 135.992 41.3878 149.235C42.5299 162.478 48.63 174.738 55.1064 186.355C60.5079 167.302 67.8459 148.852 77.0056 131.295C82.2328 121.275 91.7801 112.735 100.232 105.241C113.209 93.7153 141.694 88.2153 158.918 86.098C176.141 83.9806 179.186 83.5153 196.242 80.3236" fill="#D8E8CA"/>
<path d="M265.891 253.281L225.195 262.295L218.974 253.281L219.981 241.675L226.164 236.023H247.481L267.386 253.953" fill="#659A3D"/>
<g opacity="0.3">
<path d="M265.891 253.281L225.195 262.295L218.974 253.281L219.981 241.675L226.164 236.023H247.481L267.386 253.953" fill="black"/>
</g>
<path d="M203.832 169.454L152.465 162.535L144.378 160.253C144.378 160.253 125.864 156.185 124.133 155.568C122.137 154.855 121.313 155.647 121.099 156.402C120.767 157.576 121.883 158.893 123.59 159.557C124.175 159.787 133.566 163.042 133.566 163.042C132.488 163.273 131.428 163.579 130.393 163.957C128.148 164.72 125.992 167.616 124.904 170.994C123.817 174.371 123.822 175.412 125.113 175.89C125.362 175.969 125.625 175.991 125.883 175.956C126.141 175.92 126.388 175.827 126.606 175.683C127.339 175.251 127.888 174.563 128.148 173.752C129.949 168.369 133.317 167.946 133.317 167.946L134.376 168.244C134.376 168.244 130.9 170.67 130.96 173.605C130.965 174.038 131.053 174.466 131.221 174.865C130.979 175.582 130.921 176.348 131.05 177.093C131.18 177.838 131.494 178.539 131.964 179.131C132.469 179.735 133.122 180.198 133.86 180.473C134.598 180.748 135.394 180.826 136.171 180.7C136.911 180.572 137.713 180.133 137.818 179.393C137.837 178.995 137.755 178.6 137.58 178.243C137.502 178.048 137.441 177.847 137.397 177.641L140.479 178.062C140.479 178.062 147.449 178.637 150.455 179.233L198.573 193.726C200.157 194.203 201.82 194.359 203.465 194.186C205.11 194.014 206.705 193.515 208.155 192.719C209.605 191.923 210.883 190.847 211.912 189.552C212.942 188.257 213.704 186.77 214.153 185.178V185.178C214.636 183.461 214.745 181.661 214.473 179.899C214.201 178.137 213.554 176.454 212.576 174.963C211.597 173.472 210.31 172.209 208.802 171.259C207.293 170.308 205.598 169.693 203.832 169.454V169.454Z" fill="#FFBE9D"/>
<path d="M151.268 163.842C151.189 164.919 150.112 165.672 149.054 165.892C147.995 166.111 146.898 165.97 145.826 166.114C142.627 166.545 140.136 169.457 136.919 169.734C136.472 169.774 135.905 169.68 135.774 169.251C135.644 168.822 135.994 168.467 136.297 168.205L144.31 161.121" fill="#FFBE9D"/>
<path d="M144.325 161.116C144.299 161.085 143.962 161.328 143.382 161.793C142.801 162.258 141.968 162.948 140.954 163.808L137.404 166.859L136.385 167.748C136.082 168.054 135.551 168.318 135.455 169.055C135.451 169.235 135.501 169.412 135.599 169.564C135.697 169.715 135.838 169.834 136.004 169.904C136.277 170.019 136.573 170.067 136.869 170.046C137.394 170.002 137.913 169.899 138.416 169.74C140.436 169.081 141.991 167.86 143.554 167.126C144.275 166.76 145.047 166.505 145.844 166.368C146.586 166.253 147.318 166.276 147.992 166.229C149.362 166.195 150.47 165.61 150.919 164.964C151.369 164.318 151.293 163.824 151.272 163.84C151.212 163.824 151.217 164.279 150.736 164.812C150.255 165.346 149.286 165.813 147.971 165.798C147.238 165.784 146.504 165.806 145.773 165.866C144.92 165.986 144.091 166.24 143.316 166.619C141.678 167.353 140.104 168.55 138.233 169.152C137.779 169.296 137.311 169.39 136.837 169.434C136.393 169.465 136.011 169.303 136.053 169.068C136.095 168.833 136.424 168.48 136.769 168.179L137.776 167.275L141.239 164.138C142.219 163.236 143.003 162.496 143.538 161.976C144.074 161.456 144.354 161.147 144.325 161.116Z" fill="#FF9A6C"/>
<path d="M134.478 168.135C134.478 168.216 133.694 167.795 132.458 168.109C131.757 168.313 131.14 168.737 130.699 169.319C130.154 170.048 129.727 170.857 129.434 171.719C129.131 172.61 128.739 173.468 128.263 174.28C127.856 174.959 127.276 175.518 126.582 175.899C126.342 176.026 126.075 176.096 125.803 176.103C125.53 176.109 125.26 176.052 125.014 175.935C124.834 175.858 124.677 175.734 124.562 175.574C124.586 175.543 124.748 175.671 125.085 175.794C125.312 175.872 125.554 175.9 125.793 175.875C126.032 175.85 126.263 175.773 126.47 175.65C127.092 175.259 127.607 174.72 127.97 174.082C128.415 173.279 128.787 172.439 129.081 171.57C129.388 170.67 129.845 169.829 130.432 169.081C130.931 168.456 131.626 168.016 132.406 167.834C132.924 167.718 133.463 167.734 133.974 167.881C134.319 167.996 134.489 168.109 134.478 168.135Z" fill="#FF9A6C"/>
<path d="M122.939 159.291C122.962 159.242 123.67 159.503 124.81 159.926L129.274 161.568L133.764 163.136C134.914 163.536 135.625 163.785 135.609 163.84C135.593 163.894 134.856 163.735 133.68 163.403C132.504 163.071 130.894 162.564 129.141 161.934C127.387 161.304 125.821 160.674 124.697 160.18C123.574 159.686 122.918 159.341 122.939 159.291Z" fill="#FF9A6C"/>
<path d="M135.847 170.998C135.868 171.018 135.709 171.175 135.445 171.465C135.181 171.756 134.789 172.226 134.862 172.88C134.889 173.048 134.959 173.207 135.065 173.34C135.171 173.473 135.31 173.577 135.468 173.64C135.866 173.805 136.283 173.92 136.71 173.983C137.248 174.053 137.741 174.318 138.098 174.728C138.266 174.971 138.376 175.251 138.416 175.544C138.456 175.838 138.427 176.137 138.33 176.416C138.233 176.691 138.08 176.943 137.881 177.156C137.682 177.369 137.442 177.539 137.175 177.655C136.694 177.886 136.155 177.966 135.628 177.886C134.794 177.708 133.991 177.408 133.244 176.997C132.733 176.734 132.269 176.388 131.872 175.972C131.611 175.661 131.535 175.436 131.553 175.431C131.571 175.426 131.697 175.604 131.982 175.865C132.403 176.221 132.871 176.518 133.372 176.748C134.105 177.111 134.883 177.374 135.685 177.533C136.511 177.653 137.64 177.235 137.956 176.299C138.034 176.078 138.058 175.842 138.029 175.61C137.999 175.377 137.916 175.155 137.787 174.96C137.487 174.623 137.076 174.404 136.629 174.343C136.177 174.266 135.738 174.128 135.322 173.936C135.123 173.843 134.951 173.701 134.823 173.522C134.695 173.344 134.616 173.135 134.593 172.916C134.587 172.617 134.651 172.32 134.781 172.051C134.911 171.781 135.103 171.546 135.34 171.363C135.633 171.092 135.821 170.982 135.847 170.998Z" fill="#FF9A6C"/>
<path d="M136.934 177.402C136.934 177.384 137.156 177.402 137.457 177.642C137.656 177.82 137.812 178.041 137.912 178.288C138.012 178.536 138.053 178.804 138.032 179.07C137.983 179.467 137.832 179.844 137.593 180.165C137.354 180.486 137.036 180.739 136.67 180.9C135.779 181.269 134.78 181.283 133.879 180.939C132.983 180.621 132.209 180.03 131.665 179.25C131.229 178.613 130.972 177.871 130.92 177.101C130.88 176.591 130.935 176.078 131.085 175.588C131.194 175.243 131.302 175.065 131.323 175.083C131.398 175.099 131.048 175.847 131.194 177.075C131.283 177.784 131.546 178.459 131.96 179.041C132.476 179.744 133.191 180.275 134.012 180.568C134.818 180.879 135.712 180.879 136.518 180.568C136.836 180.438 137.116 180.231 137.332 179.965C137.549 179.698 137.694 179.381 137.755 179.044C137.783 178.812 137.761 178.578 137.691 178.355C137.622 178.133 137.505 177.928 137.349 177.755C137.112 177.517 136.921 177.433 136.934 177.402Z" fill="#FF9A6C"/>
<path d="M145.486 173.18C145.452 173.18 145.501 172.812 145.815 172.292C146.251 171.587 146.911 171.049 147.689 170.762L147.668 171.107C147.263 170.915 146.872 170.698 146.494 170.457C144.275 169.058 143.178 167.173 143.272 167.139C143.363 167.061 144.579 168.781 146.704 170.125C147.088 170.37 147.472 170.585 147.833 170.77L148.232 170.974L147.814 171.118C147.098 171.368 146.472 171.822 146.011 172.425C145.663 172.874 145.533 173.201 145.486 173.18Z" fill="#FF9A6C"/>
<path d="M129.488 167.694C129.562 167.62 130.105 168.216 130.165 169.168C130.225 170.119 129.776 170.783 129.692 170.721C129.609 170.658 129.836 170.02 129.773 169.194C129.711 168.368 129.392 167.756 129.488 167.694Z" fill="#FF9A6C"/>
<path d="M369.192 185.57C369.192 185.57 376.696 173.407 378.024 172.374C379.351 171.342 391.23 166.995 392.247 167.314C393.263 167.632 407.654 170.092 406.002 171.802C404.35 173.511 394.311 171.655 394.311 171.655L392.963 172.33C392.963 172.33 401.635 173.71 403.462 174.766C405.142 175.739 404.564 177.796 402.978 177.642C401.392 177.487 393.854 176.018 393.407 176.335C392.96 176.651 401.603 178.366 402.534 178.917C403.786 179.657 403.911 181.882 402.33 181.774C401.399 181.709 393.245 179.605 393.245 179.605C393.245 179.605 399.711 182.096 400.302 182.661C401.277 183.586 400.503 184.995 399.105 184.687C398.143 184.475 393.574 182.297 392.288 182.015C392.288 182.015 391.084 182.339 389.994 184.773C389.484 185.907 387.163 192.997 382.921 192.902C379.163 192.821 375.473 195.919 375.473 195.919L369.192 185.57Z" fill="#FFBE9D"/>
<path d="M405.973 171.841C405.997 171.919 405.027 172.325 403.36 172.565C402.378 172.701 401.385 172.743 400.396 172.691C399.296 172.568 398.093 172.398 396.828 172.223L394.144 171.831L394.306 171.815C390.754 173.08 388.154 173.906 388.099 173.762C388.044 173.619 390.558 172.555 394.087 171.206L394.157 171.18L394.249 171.193L396.912 171.551L400.438 172.074C401.394 172.153 402.355 172.16 403.313 172.095C404.941 171.977 405.947 171.739 405.973 171.841Z" fill="#FF9A6C"/>
<path d="M374.817 184.129C375.695 184.945 377.135 184.743 378.162 184.129C379.189 183.515 379.973 182.561 380.953 181.873C383.881 179.811 388.096 180.305 390.921 178.101C391.316 177.793 391.705 177.291 391.489 176.841C391.272 176.391 390.725 176.378 390.263 176.389L378.405 176.674" fill="#FFBE9D"/>
<path d="M378.405 176.672C378.405 176.625 378.86 176.57 379.686 176.51C380.512 176.45 381.704 176.384 383.178 176.316L388.363 176.12L389.86 176.073C390.336 176.094 390.969 175.911 391.601 176.434C391.74 176.578 391.833 176.76 391.868 176.957C391.902 177.154 391.877 177.357 391.795 177.54C391.658 177.839 391.452 178.1 391.193 178.303C390.733 178.664 390.233 178.972 389.704 179.22C387.566 180.211 385.381 180.392 383.562 180.977C382.7 181.222 381.879 181.596 381.129 182.086C380.439 182.553 379.864 183.131 379.275 183.594C378.139 184.6 376.795 184.961 375.943 184.773C375.091 184.585 374.78 184.13 374.809 184.127C374.846 184.069 375.185 184.443 375.977 184.514C376.769 184.584 377.914 184.234 378.967 183.23C379.513 182.755 380.073 182.159 380.797 181.625C381.582 181.081 382.447 180.662 383.361 180.384C385.248 179.749 387.43 179.534 389.403 178.611C389.881 178.386 390.333 178.109 390.752 177.788C391.133 177.477 391.324 177.059 391.112 176.899C390.911 176.687 390.365 176.701 389.858 176.716L388.358 176.74L383.172 176.792C381.696 176.792 380.499 176.792 379.673 176.771C378.847 176.75 378.408 176.719 378.405 176.672Z" fill="#FF9A6C"/>
<path d="M310.756 454.887L313.497 485.05L322.543 508.284C322.697 508.68 322.768 509.104 322.752 509.529C322.735 509.954 322.631 510.37 322.447 510.754C322.263 511.137 322.002 511.478 321.68 511.756C321.359 512.034 320.983 512.243 320.578 512.37V512.37C320.106 512.519 319.606 512.553 319.119 512.468C318.632 512.383 318.172 512.183 317.779 511.883C312.685 508.002 294.018 493.635 293.943 491.416C293.854 488.846 288.94 459.786 288.94 459.786L310.756 454.887Z" fill="url(#paint0_linear_1069_941)"/>
<g opacity="0.6">
<path d="M320.577 512.379L293.707 489.375L293.853 490.651C293.978 491.75 294.49 492.769 295.296 493.526C297.463 495.555 303.568 501.021 317.684 511.877C318.089 512.188 318.565 512.395 319.069 512.478C319.574 512.561 320.091 512.518 320.575 512.352L320.577 512.379Z" fill="white"/>
</g>
<g opacity="0.6">
<path d="M298.78 478.972C299.18 479.202 299.482 479.572 299.626 480.011C299.771 480.45 299.749 480.927 299.564 481.351C299.349 481.761 298.986 482.072 298.548 482.222C298.11 482.371 297.632 482.347 297.211 482.153C296.391 481.732 295.905 480.41 296.391 479.631C296.877 478.852 298.22 478.459 298.926 479.066" fill="white"/>
</g>
<path d="M312.2 500.006C312.381 500.071 312.88 498.417 314.573 497.366C316.233 496.263 317.945 496.498 317.971 496.32C317.989 496.244 317.582 496.059 316.866 496.035C315.927 496.035 315.009 496.307 314.223 496.819C313.432 497.322 312.803 498.043 312.412 498.895C312.119 499.541 312.124 499.99 312.2 500.006Z" fill="#1A2E35"/>
<path d="M314.804 503.791C314.961 503.906 315.815 502.819 317.321 502.194C318.826 501.569 320.196 501.671 320.217 501.48C320.285 501.318 318.763 500.842 317.059 501.582C315.355 502.322 314.639 503.728 314.804 503.791Z" fill="#1A2E35"/>
<path d="M307.624 495.294C307.781 495.422 309.085 493.741 311.343 492.567C313.602 491.393 315.703 491.218 315.687 491.017C315.719 490.852 313.434 490.688 311.03 491.979C308.625 493.27 307.47 495.226 307.624 495.294Z" fill="#1A2E35"/>
<path d="M306.024 486.194C306.124 486.367 307.708 485.483 309.861 485.149C312.015 484.814 313.782 485.149 313.834 484.953C313.886 484.757 312.07 484.116 309.759 484.49C307.449 484.864 305.912 486.066 306.024 486.194Z" fill="#1A2E35"/>
<path d="M304.995 477.363C305.11 477.528 306.666 476.333 308.963 476.176C311.255 475.97 312.98 476.903 313.066 476.725C313.108 476.655 312.737 476.315 311.997 475.994C311.021 475.592 309.963 475.428 308.911 475.515C307.857 475.593 306.837 475.922 305.936 476.474C305.257 476.908 304.946 477.303 304.995 477.363Z" fill="#1A2E35"/>
<path d="M308.717 474.499C308.756 474.499 308.777 474.084 308.628 473.357C308.408 472.325 307.985 471.348 307.384 470.482C306.995 469.959 306.576 469.279 305.69 468.978C305.446 468.902 305.183 468.903 304.939 468.981C304.695 469.059 304.481 469.211 304.326 469.415C304.048 469.83 303.934 470.332 304.005 470.827C304.253 472.735 306.096 474.395 308.283 474.424C309.291 474.411 310.272 474.099 311.102 473.527C311.932 472.956 312.574 472.15 312.946 471.213C313.038 470.977 313.079 470.723 313.065 470.47C313.05 470.216 312.981 469.969 312.862 469.744C312.719 469.53 312.511 469.367 312.269 469.278C312.028 469.189 311.764 469.178 311.516 469.248C310.638 469.483 310.133 470.061 309.653 470.502C308.909 471.248 308.304 472.118 307.865 473.075C307.562 473.749 307.486 474.154 307.523 474.167C307.638 474.235 308.113 472.599 309.979 470.842C310.452 470.432 310.993 469.919 311.631 469.797C311.765 469.755 311.909 469.759 312.041 469.806C312.174 469.853 312.287 469.941 312.365 470.058C312.433 470.211 312.467 470.376 312.467 470.543C312.467 470.71 312.433 470.875 312.365 471.028C312.02 471.827 311.453 472.51 310.73 472.995C310.008 473.48 309.161 473.747 308.291 473.765C306.461 473.765 304.831 472.296 304.616 470.764C304.556 470.421 304.62 470.068 304.797 469.768C304.878 469.651 304.994 469.562 305.129 469.515C305.264 469.468 305.41 469.465 305.547 469.507C306.161 469.674 306.623 470.262 307.005 470.751C308.523 472.818 308.586 474.546 308.717 474.499Z" fill="#1A2E35"/>
<path d="M283.026 472.583L260.457 293.839L267.676 252.281L310.236 254.54L315.536 469.274C315.557 470.049 315.302 470.807 314.817 471.412C314.331 472.017 313.647 472.43 312.886 472.578L288.099 476.402C287.514 476.491 286.917 476.462 286.344 476.317C285.771 476.173 285.232 475.915 284.759 475.559C284.287 475.203 283.89 474.757 283.593 474.246C283.295 473.735 283.102 473.169 283.026 472.583Z" fill="#1A2E35"/>
<path d="M261.105 299.831L220.059 340.464L279.126 354.828L274.921 384.628L194.979 373.746C191.599 373.286 188.347 372.142 185.422 370.386C182.497 368.629 179.96 366.296 177.965 363.528C174.944 359.336 173.286 354.315 173.217 349.148C173.149 343.981 174.672 338.919 177.581 334.648L239.857 243.211L267.676 252.279L261.105 299.831Z" fill="#1A2E35"/>
<path d="M263.371 289.493C263.209 289.456 262.571 291.743 261.946 294.598C261.322 297.452 260.943 299.8 261.105 299.826C261.267 299.852 261.905 297.575 262.529 294.718C263.154 291.861 263.533 289.527 263.371 289.493Z" fill="#455A64"/>
<path d="M269.351 358.586C269.351 358.586 269.025 358.463 268.376 358.259L265.502 357.365L254.488 354.017L214.409 341.958L214.511 342.34L263.784 289.857L263.262 289.69C264.239 297.937 265.256 306.548 266.296 315.331C271.377 357.906 276.152 396.422 279.847 424.272C281.677 438.197 283.297 449.45 284.479 457.209C285.137 461.083 285.569 464.102 286.018 466.125C286.232 467.12 286.397 467.887 286.512 468.426C286.627 468.948 286.7 469.21 286.7 469.21C286.7 469.21 286.666 468.948 286.572 468.426C286.478 467.903 286.324 467.119 286.136 466.117C285.728 464.092 285.331 461.064 284.709 457.19C283.601 449.414 282.048 438.158 280.266 424.225C276.677 396.364 271.97 357.841 266.887 315.269C265.841 306.485 264.825 297.875 263.847 289.63L263.771 289L263.337 289.463L214.158 342.031L213.896 342.293L214.257 342.4L254.394 354.262L265.447 357.491L268.34 358.319C269.012 358.507 269.351 358.586 269.351 358.586Z" fill="#455A64"/>
<path d="M282.638 469.209C282.803 469.188 278.114 431.251 272.168 384.485C266.223 337.72 261.267 299.811 261.105 299.832C260.943 299.853 265.627 337.78 271.575 384.561C277.524 431.342 282.468 469.23 282.638 469.209Z" fill="#455A64"/>
<path d="M267.773 270.578C267.694 270.558 267.323 271.624 266.821 273.349C266.32 275.075 265.692 277.503 265.104 280.198C264.516 282.893 264.08 285.35 263.813 287.138C263.547 288.926 263.447 290.04 263.526 290.053C263.604 290.066 263.86 288.979 264.231 287.214L265.69 280.324C266.267 277.751 266.79 275.422 267.229 273.454C267.626 271.695 267.854 270.602 267.773 270.578Z" fill="#455A64"/>
<path d="M265.132 267.075C265.195 267.041 264.555 266.516 263.465 266.895C263.147 267.011 262.866 267.207 262.647 267.465C262.428 267.723 262.281 268.034 262.218 268.366C262.142 268.781 262.19 269.209 262.356 269.596C262.522 269.983 262.799 270.313 263.151 270.544C263.52 270.75 263.943 270.838 264.364 270.796C264.784 270.755 265.182 270.585 265.504 270.311C265.762 270.086 265.95 269.79 266.043 269.46C266.136 269.13 266.13 268.78 266.026 268.453C265.91 268.026 265.635 267.659 265.258 267.428C264.997 267.276 264.814 267.281 264.806 267.313C264.751 267.391 265.433 267.634 265.613 268.554C265.668 268.798 265.652 269.052 265.568 269.288C265.485 269.523 265.336 269.73 265.14 269.885C264.902 270.07 264.615 270.183 264.314 270.208C264.013 270.234 263.711 270.173 263.444 270.031C263.194 269.861 262.996 269.623 262.873 269.346C262.75 269.069 262.707 268.763 262.749 268.463C262.786 268.211 262.884 267.972 263.036 267.768C263.188 267.563 263.388 267.4 263.619 267.292C264.476 266.871 265.112 267.18 265.132 267.075Z" fill="#455A64"/>
<path d="M207.969 347.431C208.094 347.567 210.405 345.439 213.719 343.523C217.033 341.607 220.025 340.629 219.968 340.454C219.91 340.279 216.808 341.022 213.418 343.006C210.028 344.99 207.859 347.327 207.969 347.431Z" fill="#455A64"/>
<path d="M296.689 130.446L320.256 141.825L310.097 212.741L314.093 244.573C314.346 246.593 314.1 248.644 313.376 250.546C312.651 252.449 311.47 254.144 309.937 255.483V255.483L271.876 254.733L245.217 240.076L232.978 238.009L237.988 213.782L237.837 211.136C238.819 204.4 237.923 198.902 232.942 194.263C223.697 185.636 231.75 162.133 243.181 159.284L207.898 194.286C205.752 195.434 203.252 195.732 200.896 195.12L149.825 181.908L152.477 162.227L198.714 167.455L233.924 136.348L260.133 130.456L264.804 122.734H291.616L293.493 124.141C294.39 124.813 295.064 125.739 295.43 126.799L296.689 130.446Z" fill="url(#paint1_linear_1069_941)"/>
<path d="M320.256 141.824C320.256 141.824 327.986 146.723 330.867 155.679C333.561 164.044 339.638 197.885 339.638 197.885L366.414 181.268L381.834 197.491L346.138 228.971C343.463 231.331 340.152 232.849 336.619 233.337C333.086 233.824 329.488 233.258 326.275 231.711C323.574 230.41 321.237 228.46 319.473 226.035C317.71 223.61 316.574 220.786 316.168 217.815L311.788 185.73L320.256 141.824Z" fill="url(#paint2_linear_1069_941)"/>
<path d="M239.85 243.216L241.509 240.777L259.13 244.034L262.376 251.542L239.85 243.216Z" fill="#FFBE9D"/>
<path d="M309.932 255.484C294.185 261.823 277.372 259.491 262.365 251.544C257.838 249.145 253.64 246.157 249.093 243.794C244.545 241.431 239.501 239.682 234.389 240.04C229.277 240.398 224.12 243.221 222.076 247.921C220.032 252.621 222.076 259.015 226.888 260.769L225.186 262.293C218.114 259.002 214.763 249.484 218.211 242.484C220.858 237.117 226.415 233.92 230.495 229.539C236.485 223.096 239.642 203.156 238.228 200.926" fill="url(#paint3_linear_1069_941)"/>
<path d="M242.345 222.638C242.316 222.667 242.789 223.161 243.672 224.01C244.109 224.444 244.655 224.962 245.327 225.524C245.999 226.086 246.73 226.76 247.611 227.419C249.639 229.015 251.763 230.485 253.973 231.819C256.688 233.437 259.509 234.87 262.417 236.108C265.34 237.313 268.341 238.318 271.4 239.117C273.9 239.756 276.438 240.239 278.998 240.565C280.085 240.733 281.088 240.785 281.951 240.863C282.813 240.942 283.574 240.976 284.188 240.981C285.419 241.01 286.096 241.007 286.099 240.965C286.101 240.923 285.422 240.848 284.201 240.748C283.59 240.706 282.845 240.646 281.982 240.531C281.12 240.416 280.132 240.338 279.055 240.144C276.523 239.759 274.014 239.235 271.538 238.576C268.516 237.753 265.549 236.742 262.652 235.549C259.77 234.32 256.967 232.912 254.26 231.335C252.056 230.033 249.924 228.611 247.875 227.077C246.981 226.444 246.231 225.799 245.546 225.26C244.862 224.722 244.292 224.238 243.835 223.83C242.901 223.038 242.374 222.609 242.345 222.638Z" fill="#1A2E35"/>
<path d="M298.234 261.26C298.268 261.312 299.154 260.821 300.325 259.691C301.847 258.204 303.054 256.426 303.877 254.463C304.702 252.503 305.127 250.398 305.126 248.271C305.102 246.642 304.836 245.657 304.773 245.68C304.671 245.693 304.789 246.679 304.703 248.26C304.581 250.314 304.116 252.332 303.325 254.231C302.522 256.125 301.405 257.871 300.022 259.394C298.961 260.57 298.174 261.166 298.234 261.26Z" fill="#1A2E35"/>
<path d="M299.073 252.306C298.903 252.351 299.219 253.828 299.055 255.642C298.89 257.456 298.346 258.857 298.508 258.933C298.67 259.009 299.494 257.626 299.65 255.692C299.807 253.757 299.217 252.246 299.073 252.306Z" fill="#1A2E35"/>
<path d="M310.419 211.136C310.491 210.964 310.538 210.783 310.557 210.598C310.636 210.172 310.73 209.657 310.842 209.029C311.085 207.576 311.412 205.631 311.807 203.278C312.617 198.414 313.762 191.701 315.136 184.306C316.511 176.91 317.87 170.232 318.869 165.401C319.35 163.048 319.747 161.124 320.045 159.681C320.162 159.059 320.259 158.544 320.343 158.113C320.39 157.932 320.411 157.745 320.405 157.559C320.32 157.723 320.26 157.899 320.225 158.081C320.113 158.5 319.979 159.007 319.817 159.618C319.472 160.954 319.007 162.897 318.456 165.301C317.35 170.109 315.931 176.78 314.535 184.185C313.14 191.591 312.079 198.319 311.376 203.202C311.025 205.647 310.759 207.625 310.591 208.995C310.521 209.623 310.466 210.145 310.419 210.564C310.39 210.753 310.39 210.946 310.419 211.136V211.136Z" fill="#1A2E35"/>
<path d="M328.763 214.114C328.964 214.203 330.48 210.013 333.41 205.459C336.34 200.905 339.787 198.038 339.638 197.878C339.593 197.823 338.692 198.477 337.385 199.708C335.693 201.336 334.191 203.15 332.908 205.116C331.639 207.086 330.558 209.171 329.68 211.343C329.008 213.008 328.692 214.072 328.763 214.114Z" fill="#1A2E35"/>
<path d="M326.785 209.104C326.879 209.14 327.268 208.228 328.076 206.866C329.123 205.098 330.467 203.524 332.048 202.213C333.665 200.935 335.432 199.858 337.31 199.008C338.75 198.336 339.662 197.963 339.638 197.876C339.615 197.79 338.645 198.038 337.142 198.619C335.167 199.375 333.321 200.433 331.669 201.756C330.027 203.105 328.678 204.775 327.705 206.665C326.975 208.102 326.725 209.083 326.785 209.104Z" fill="#1A2E35"/>
<g opacity="0.3">
<path d="M282.991 241.61C284.086 242.078 283.984 243.832 283.064 244.59C282.144 245.348 280.843 245.375 279.651 245.32C266.167 244.674 253.16 237.368 245.593 226.188C255.987 234.715 269.617 237.935 282.73 240.91" fill="black"/>
</g>
<g opacity="0.3">
<path d="M317.679 170.262C316.522 182.849 317.416 195.54 320.324 207.841C320.943 210.455 321.657 213.069 321.607 215.762C321.557 218.454 319.898 221.544 317.783 223.193C315.875 218.799 315.841 214.567 315.036 209.817C314.312 205.546 313.097 195.581 313.094 195.44C312.927 186.717 314.984 179.249 318.335 171.391" fill="black"/>
</g>
<g opacity="0.3">
<path d="M224.788 150.031C225.018 150.494 219.971 182.302 219.971 182.302L226.996 175.265L224.788 150.031Z" fill="black"/>
</g>
<path d="M260.188 311.276C260.188 311.276 260.766 311.302 261.897 311.32L266.918 311.391C271.33 311.462 277.835 311.629 286.206 312.039C294.578 312.45 304.804 313.21 316.631 314.562C322.54 315.273 328.852 316.083 335.509 317.189C342.173 318.256 349.185 319.581 356.485 321.246C363.785 322.911 371.383 324.89 379.153 327.426C386.923 329.961 394.881 333.02 402.659 337.126C406.62 339.193 410.391 341.603 413.932 344.328C417.483 347.115 420.839 350.393 423.16 354.426C423.442 354.933 423.743 355.433 424.007 355.95L424.658 357.571L424.984 358.384C425.073 358.661 425.126 358.951 425.199 359.233L425.609 360.94C425.87 363.254 425.964 365.664 425.264 367.956C424.14 372.617 421.064 376.635 417.538 380.013C410.335 386.78 401.149 391.488 391.625 395.435C382.043 399.37 371.887 402.431 361.428 404.99C340.493 410.092 318.303 413.093 295.516 414.698C273.314 416.203 251.038 416.29 228.825 414.96C207.313 413.653 186.629 411.039 167.257 406.924C157.82 404.933 148.5 402.418 139.342 399.393C130.456 396.439 122.029 392.871 114.39 388.521C110.611 386.281 107.035 383.834 103.87 381.027C100.705 378.219 97.9531 375.014 96.2517 371.326L95.6872 369.922C95.4766 369.467 95.3129 368.991 95.1984 368.503L94.8482 367.049C94.7959 366.806 94.7202 366.568 94.6862 366.323L94.6261 365.583C94.3772 363.641 94.5239 361.669 95.0573 359.785C95.58 357.913 96.4974 356.209 97.4879 354.593C98.5436 353.033 99.7357 351.57 101.05 350.22C103.612 347.628 106.431 345.303 109.463 343.282C112.331 341.338 115.309 339.562 118.383 337.965C124.337 334.8 130.223 332.353 135.772 330.223C145.306 326.662 155.04 323.66 164.923 321.233C173.052 319.202 179.437 317.921 183.767 317.092C185.931 316.661 187.591 316.384 188.702 316.172C189.812 315.96 190.38 315.845 190.38 315.845C190.38 315.845 188.087 316.183 183.746 316.975C179.405 317.767 173.012 319.008 164.868 321.008C154.964 323.392 145.208 326.36 135.654 329.896C130.09 332.016 124.186 334.452 118.206 337.615C115.115 339.213 112.12 340.99 109.236 342.937C106.176 344.968 103.331 347.306 100.744 349.914C99.41 351.28 98.1996 352.762 97.1273 354.342C96.1132 355.987 95.1723 357.728 94.6313 359.649C94.0799 361.588 93.9252 363.619 94.1765 365.62L94.2366 366.38C94.2706 366.642 94.349 366.877 94.4013 367.125L94.7594 368.618C94.8768 369.117 95.0431 369.604 95.2559 370.071L95.8309 371.509C97.5689 375.276 100.371 378.536 103.549 381.369C106.727 384.203 110.344 386.678 114.139 388.937C121.815 393.321 130.26 396.907 139.174 399.879C148.348 402.923 157.685 405.454 167.14 407.46C186.54 411.603 207.25 414.223 228.789 415.543C251.026 416.879 273.326 416.792 295.552 415.281C318.369 413.676 340.587 410.667 361.563 405.546C372.044 402.979 382.224 399.905 391.839 395.953C401.399 391.98 410.628 387.251 417.917 380.397C421.485 376.97 424.626 372.879 425.784 368.074C426.503 365.722 426.417 363.22 426.132 360.836L425.708 359.076C425.633 358.786 425.58 358.488 425.486 358.203L425.152 357.37L424.483 355.707C424.221 355.184 423.902 354.661 423.615 354.139C421.236 350.019 417.831 346.71 414.245 343.899C410.678 341.16 406.878 338.738 402.889 336.661C395.069 332.544 387.069 329.512 379.294 326.96C371.518 324.409 363.889 322.456 356.577 320.807C349.264 319.157 342.239 317.84 335.569 316.789C328.902 315.696 322.582 314.899 316.667 314.204C304.828 312.884 294.588 312.18 286.214 311.781C277.84 311.381 271.317 311.273 266.915 311.242H261.895C260.776 311.26 260.188 311.276 260.188 311.276Z" fill="#4D7D28"/>
<path d="M354.133 224.158C354.133 224.158 354.787 224.304 356.067 224.561C357.348 224.817 359.259 225.172 361.747 225.708C366.733 226.754 374.078 228.346 383.411 230.894C392.715 233.49 404.084 236.941 416.603 242.629C419.721 244.061 422.91 245.63 426.096 247.441C429.399 249.274 432.582 251.316 435.625 253.556C438.73 255.885 441.785 258.504 444.422 261.641C447.059 264.778 449.354 268.401 450.386 272.578C451.496 276.857 451.164 281.384 449.44 285.455C447.741 289.624 444.856 293.334 441.482 296.588C434.686 303.123 426.041 308.061 416.851 312.314C398.337 320.729 377.188 326.373 354.748 330.586C332.271 334.751 308.351 337.328 283.499 338.447C257.842 339.599 232.139 339.14 206.54 337.074C180.25 334.884 154.676 331.023 130.607 324.7C118.585 321.516 106.941 317.704 96.0245 312.824C90.5804 310.364 85.3089 307.656 80.4006 304.483C75.4923 301.309 70.9211 297.712 67.2386 293.375C63.5796 289.088 60.8667 283.826 60.7047 278.285C60.6741 277.599 60.6986 276.912 60.7779 276.23C60.8563 275.55 60.8118 274.855 60.9948 274.194L61.4417 272.196C61.5567 271.522 61.886 270.91 62.0977 270.267C62.9889 267.69 64.4969 265.405 66.0416 263.209C69.3425 258.948 73.438 255.464 77.7034 252.437C81.9687 249.41 86.5242 246.916 91.0535 244.631C100.164 240.14 109.39 236.705 118.394 233.898C127.398 231.091 136.185 228.845 144.624 226.976C178.459 219.675 206.511 217.691 225.796 216.619C235.467 216.12 242.973 216.096 248.064 215.968L253.856 215.843C255.163 215.809 255.832 215.777 255.832 215.777C255.832 215.777 255.163 215.777 253.856 215.777L248.061 215.845C242.97 215.934 235.454 215.919 225.786 216.384C206.487 217.385 178.417 219.304 144.535 226.56C136.083 228.419 127.285 230.641 118.256 233.454C109.226 236.266 99.9815 239.685 90.8314 244.184C86.2837 246.471 81.7282 248.981 77.408 252.013C73.0878 255.046 68.9766 258.567 65.6234 262.888C64.0553 265.112 62.5159 267.434 61.5985 270.071C61.3816 270.73 61.0471 271.355 60.9268 272.045L60.4669 274.094C60.2787 274.771 60.3231 275.488 60.2394 276.185C60.1602 276.886 60.1357 277.591 60.1663 278.295C60.2716 281.142 60.9443 283.94 62.1447 286.524C63.3484 289.131 64.9137 291.556 66.7943 293.726C70.5291 298.125 75.1578 301.756 80.0739 304.948C84.99 308.14 90.306 310.869 95.7554 313.339C106.711 318.243 118.386 322.067 130.424 325.262C154.535 331.603 180.137 335.472 206.456 337.665C232.08 339.734 257.81 340.189 283.491 339.027C308.367 337.898 332.307 335.307 354.813 331.122C377.29 326.887 398.46 321.223 417.016 312.761C426.234 308.482 434.903 303.51 441.761 296.915C445.159 293.626 448.084 289.857 449.809 285.617C451.561 281.457 451.894 276.836 450.755 272.468C449.694 268.207 447.331 264.529 444.689 261.377C442.046 258.224 438.939 255.579 435.802 253.245C432.742 251.003 429.541 248.958 426.221 247.122C423.022 245.314 419.82 243.748 416.692 242.318C404.147 236.648 392.752 233.229 383.429 230.664C374.08 228.147 366.726 226.584 361.736 225.585C356.747 224.587 354.133 224.158 354.133 224.158Z" fill="#4D7D28"/>
<path d="M313.831 397.672L319.566 398.576C323.324 399.18 328.857 400.131 335.919 401.676C342.981 403.221 351.579 405.357 361.247 408.818C366.066 410.572 371.179 412.637 376.304 415.353C378.955 416.735 381.509 418.297 383.948 420.027C386.528 421.827 388.886 423.927 390.971 426.282C392.036 427.513 392.966 428.854 393.747 430.282C394.558 431.732 395.136 433.302 395.459 434.932C395.524 435.348 395.621 435.758 395.66 436.176L395.736 437.442C395.736 438.286 395.629 439.135 395.553 439.985C395.325 440.811 395.203 441.671 394.891 442.479L394.405 443.687L394.162 444.293L393.838 444.866C392.189 447.963 389.714 450.642 386.931 452.995C384.147 455.348 380.974 457.366 377.668 459.211C371.035 462.908 363.678 465.76 355.994 468.264C348.31 470.768 340.195 472.739 331.826 474.441C315.081 477.816 297.22 479.883 278.653 480.798C259.485 481.739 240.277 481.404 221.154 479.797C201.518 478.098 182.416 475.092 164.518 470.034C155.595 467.461 146.957 464.382 139.001 460.309C135.047 458.239 131.263 455.918 127.902 453.139C127.023 452.488 126.286 451.68 125.479 450.961C124.671 450.243 124.015 449.372 123.281 448.588C121.974 446.884 120.733 445.119 120.011 443.122C118.302 439.201 118.728 434.692 120.518 430.998C122.397 427.302 125.309 424.301 128.435 421.776C134.767 416.741 141.96 413.351 148.985 410.535C156.011 407.72 163.075 405.6 169.894 403.833C176.713 402.066 183.354 400.683 189.715 399.567C215.192 395.123 236.179 394.302 250.612 393.993L273.062 393.871C273.062 393.871 265.07 393.769 250.612 393.855C236.174 394.116 215.177 394.901 189.673 399.316C183.304 400.427 176.666 401.807 169.829 403.566C162.991 405.325 155.943 407.443 148.87 410.258C141.798 413.073 134.613 416.469 128.236 421.535C125.087 424.076 122.139 427.1 120.226 430.859C118.396 434.616 117.957 439.253 119.703 443.247C120.44 445.286 121.71 447.077 123.022 448.805C123.764 449.589 124.444 450.46 125.241 451.207C126.038 451.955 126.809 452.747 127.685 453.403C131.082 456.205 134.875 458.54 138.842 460.62C146.829 464.711 155.483 467.798 164.421 470.379C182.348 475.445 201.469 478.459 221.123 480.16C240.262 481.769 259.487 482.101 278.671 481.154C297.251 480.234 315.128 478.158 331.894 474.77C340.257 473.063 348.378 471.061 356.09 468.57C363.803 466.078 371.158 463.193 377.812 459.478C381.131 457.622 384.314 455.615 387.116 453.22C389.918 450.826 392.414 448.146 394.084 444.999L394.411 444.418L394.659 443.802L395.15 442.573C395.466 441.752 395.592 440.874 395.819 440.035C395.898 439.169 395.997 438.302 396.005 437.442L395.927 436.153C395.887 435.727 395.788 435.308 395.72 434.888C395.391 433.231 394.801 431.637 393.974 430.164C393.185 428.72 392.243 427.366 391.165 426.123C389.063 423.754 386.687 421.644 384.087 419.836C381.638 418.103 379.074 416.539 376.411 415.157C371.537 412.629 366.493 410.445 361.315 408.622C351.629 405.171 343.004 403.09 335.948 401.532C328.891 399.974 323.34 399.078 319.579 398.497C315.818 397.917 313.831 397.672 313.831 397.672Z" fill="#4D7D28"/>
<path d="M163.721 502.821C163.807 502.844 163.572 501.252 164.675 498.638C165.778 496.024 168.595 492.722 173.091 489.75C182.126 483.803 197.225 478.81 216.233 475.757C226.617 474.107 237.09 473.081 247.596 472.683C259.653 472.182 271.729 472.404 283.76 473.35C290.111 473.852 296.606 474.586 303.195 475.634C309.92 476.67 316.583 478.074 323.154 479.843C326.502 480.745 329.843 481.788 333.149 483.003C336.491 484.204 339.751 485.624 342.905 487.256C346.06 488.927 349.123 490.882 351.747 493.379C354.36 495.817 356.483 499.129 356.535 502.807C356.491 506.498 354.366 509.805 351.757 512.247C349.144 514.743 346.073 516.691 342.916 518.371C339.762 520.005 336.502 521.427 333.159 522.627C329.85 523.845 326.51 524.888 323.162 525.79C316.59 527.559 309.924 528.965 303.197 530.001C296.608 531.047 290.114 531.784 283.76 532.286C271.729 533.231 259.651 533.454 247.593 532.953C237.087 532.555 226.614 531.528 216.23 529.878C197.222 526.825 182.126 521.83 173.091 515.883C168.598 512.919 165.744 509.643 164.678 506.995C163.611 504.347 163.81 502.784 163.724 502.813C163.724 502.985 163.755 503.278 163.8 503.911C163.828 504.362 163.908 504.81 164.037 505.244C164.171 505.855 164.371 506.45 164.633 507.019C165.679 509.675 168.554 512.973 173.041 515.956C182.079 521.94 197.185 526.964 216.204 530.041C226.594 531.705 237.074 532.741 247.588 533.143C259.652 533.658 271.737 533.446 283.776 532.508C290.132 532.009 296.634 531.277 303.231 530.231C309.967 529.195 316.641 527.788 323.222 526.018C326.576 525.116 329.924 524.073 333.238 522.852C336.591 521.649 339.861 520.224 343.025 518.586C346.193 516.91 349.274 514.942 351.912 512.422C353.264 511.175 354.411 509.722 355.309 508.117C356.225 506.495 356.727 504.672 356.768 502.81C356.723 500.949 356.219 499.127 355.299 497.509C354.401 495.905 353.254 494.453 351.901 493.209C349.254 490.689 346.172 488.726 343.015 487.05C339.852 485.412 336.583 483.987 333.23 482.784C329.916 481.566 326.568 480.523 323.217 479.621C316.636 477.852 309.963 476.446 303.228 475.409C296.634 474.364 290.134 473.632 283.778 473.133C271.739 472.192 259.653 471.977 247.588 472.49C237.075 472.892 226.595 473.928 216.207 475.593C197.188 478.669 182.079 483.696 173.039 489.677C168.543 492.66 165.689 495.951 164.631 498.612C164.369 499.181 164.169 499.777 164.035 500.389C163.906 500.823 163.826 501.271 163.797 501.723C163.752 502.355 163.732 502.648 163.721 502.821Z" fill="#4D7D28"/>
<path d="M417.708 324.481C417.708 324.963 417.803 325.44 417.988 325.885C418.172 326.33 418.443 326.734 418.784 327.074C419.125 327.414 419.53 327.683 419.976 327.866C420.421 328.049 420.898 328.143 421.38 328.141C422.35 328.141 423.281 327.755 423.967 327.069C424.654 326.383 425.039 325.452 425.039 324.481C425.041 324 424.947 323.522 424.764 323.077C424.581 322.631 424.312 322.226 423.972 321.885C423.632 321.544 423.228 321.273 422.783 321.088C422.339 320.904 421.862 320.809 421.38 320.809C420.897 320.807 420.419 320.901 419.973 321.085C419.526 321.269 419.121 321.539 418.78 321.88C418.438 322.222 418.168 322.627 417.984 323.074C417.8 323.52 417.706 323.999 417.708 324.481V324.481Z" fill="#659A3D"/>
<path d="M89.4458 330.637C87.4192 330.637 85.7763 328.994 85.7763 326.967C85.7763 324.94 87.4192 323.297 89.4458 323.297C91.4724 323.297 93.1152 324.94 93.1152 326.967C93.1152 328.994 91.4724 330.637 89.4458 330.637Z" fill="#659A3D"/>
<path d="M235.477 462.234C235.477 463.204 235.862 464.135 236.549 464.822C237.235 465.508 238.165 465.894 239.136 465.894C240.106 465.894 241.037 465.508 241.723 464.822C242.409 464.135 242.795 463.204 242.795 462.234C242.795 461.263 242.409 460.332 241.723 459.646C241.037 458.96 240.106 458.574 239.136 458.574C238.165 458.574 237.235 458.96 236.549 459.646C235.862 460.332 235.477 461.263 235.477 462.234V462.234Z" fill="#659A3D"/>
<path d="M346.93 367.9C346.93 368.385 347.123 368.851 347.466 369.194C347.809 369.537 348.274 369.73 348.759 369.73C349.245 369.73 349.71 369.537 350.053 369.194C350.396 368.851 350.589 368.385 350.589 367.9C350.589 367.415 350.396 366.949 350.053 366.606C349.71 366.263 349.245 366.07 348.759 366.07C348.274 366.07 347.809 366.263 347.466 366.606C347.123 366.949 346.93 367.415 346.93 367.9V367.9Z" fill="#659A3D"/>
<path d="M118.718 412.381C118.718 412.866 118.911 413.331 119.254 413.674C119.597 414.018 120.062 414.21 120.547 414.21C121.033 414.21 121.498 414.018 121.841 413.674C122.184 413.331 122.377 412.866 122.377 412.381C122.377 411.895 122.184 411.43 121.841 411.087C121.498 410.744 121.033 410.551 120.547 410.551C120.062 410.551 119.597 410.744 119.254 411.087C118.911 411.43 118.718 411.895 118.718 412.381Z" fill="#659A3D"/>
<path d="M263.588 497.271C263.588 497.756 263.781 498.222 264.124 498.565C264.467 498.908 264.932 499.101 265.418 499.101C265.903 499.101 266.368 498.908 266.711 498.565C267.054 498.222 267.247 497.756 267.247 497.271C267.247 496.786 267.054 496.32 266.711 495.977C266.368 495.634 265.903 495.441 265.418 495.441C264.932 495.441 264.467 495.634 264.124 495.977C263.781 496.32 263.588 496.786 263.588 497.271V497.271Z" fill="#659A3D"/>
<path d="M359.375 176.849C358.866 176.849 358.453 176.436 358.453 175.927C358.453 175.417 358.866 175.004 359.375 175.004C359.885 175.004 360.298 175.417 360.298 175.927C360.298 176.436 359.885 176.849 359.375 176.849Z" fill="#659A3D"/>
<path d="M193.921 312.509C193.921 315.231 195.753 317.619 198.396 318.271C239.994 328.518 280.345 327.732 323.926 318.113C326.511 317.543 328.39 315.319 328.559 312.677L333.247 239.278C333.497 235.355 329.97 232.257 326.096 232.921C283.028 240.308 240.05 239.364 201.333 231.168C197.539 230.364 193.916 233.223 193.916 237.101L193.921 312.509Z" fill="#659A3D"/>
<path d="M193.921 312.509C193.921 315.231 195.753 317.619 198.396 318.271C239.994 328.518 280.345 327.732 323.926 318.113C326.511 317.543 328.39 315.319 328.559 312.677L333.247 239.278C333.497 235.355 329.97 232.257 326.096 232.921C283.028 240.308 240.05 239.364 201.333 231.168C197.539 230.364 193.916 233.223 193.916 237.101L193.921 312.509Z" fill="#EFEFEF"/>
<path d="M447.355 183.19C451.939 178.83 460.988 182.962 459.956 189.204L449.676 251.401C449.57 252.047 449.372 252.648 449.038 253.211C445.702 258.839 424.58 291.344 376.017 301.939C372.122 302.789 368.658 299.475 369.137 295.518L377.247 228.576C377.532 226.227 379.166 224.259 381.39 223.451C391.734 219.692 421.994 207.316 447.355 183.19Z" fill="#EFEFEF"/>
<path d="M92.6614 194.219C88.0278 190.469 79.7303 194.017 80.2147 199.958L85.778 268.195C85.8476 269.048 86.0884 269.861 86.5503 270.581C90.389 276.57 111.2 305.299 159.226 308.931C162.779 309.2 165.654 306.171 165.369 302.619L159.074 224.377C158.831 221.354 156.387 218.962 153.376 218.601C142.112 217.249 114.917 212.231 92.6614 194.219Z" fill="#659A3D"/>
<path d="M79.655 175.253C81.1749 170.327 84.4138 163.737 91.2169 160.315C94.2973 158.766 97.5571 161.266 97.9285 164.694L109.413 270.724C109.85 274.754 106.257 277.958 102.446 276.577C95.2181 273.957 85.5487 268.904 85.1383 260.533C85.0834 259.375 80.1725 199.495 78.9546 184.671C78.7011 181.44 78.7063 178.363 79.655 175.253Z" fill="#DDDDDD"/>
<path d="M78.5812 179.922L85.778 268.195C85.8476 269.048 86.0884 269.861 86.5503 270.581C90.389 276.57 111.2 305.299 159.226 308.931C162.779 309.2 165.654 306.171 165.369 302.619L159.074 224.377C158.831 221.354 156.387 218.962 153.376 218.601C139.569 216.943 101.822 209.778 78.5812 179.922Z" fill="#EFEFEF"/>
<path d="M219.608 116.211C219.636 116.727 219.715 117.239 219.845 117.74C220.305 119.881 221.442 121.868 223.191 123.143C223.461 123.34 223.746 123.514 224.043 123.666C225.995 124.787 228.355 125.214 230.378 126.199C231.095 126.516 231.76 126.94 232.349 127.456C233.893 128.816 234.795 130.821 236.494 131.958C238.412 133.233 240.937 133.131 243.153 132.535C243.258 132.499 243.366 132.471 243.475 132.452C245.566 131.84 247.57 130.904 249.711 130.481C251.402 130.154 253.141 130.177 254.823 130.549C256.124 130.803 257.375 131.267 258.526 131.924C259.24 132.332 259.953 132.807 260.701 133.063C261.121 133.207 261.566 133.259 262.008 133.215C263.079 133.079 263.91 132.264 264.608 131.432C266.428 129.245 267.848 126.754 268.803 124.074C269.025 123.514 269.211 122.952 269.381 122.393C270.051 120.166 270.501 117.878 270.724 115.562C270.86 114.305 270.928 113.048 270.944 111.809C270.962 111.179 270.944 110.551 270.928 109.921C270.845 106.903 270.601 103.892 270.196 100.9C270.078 99.9983 269.958 99.1148 269.841 98.2313C269.501 95.7845 269.143 93.356 268.837 90.9119C268.821 90.776 268.803 90.6505 268.787 90.5041C268.549 88.6011 268.361 86.6981 268.191 84.7794C268.124 83.9298 268.056 83.062 268.006 82.2124C267.886 80.5133 267.802 78.7984 267.745 77.0993C267.711 75.9439 267.692 74.8042 267.677 73.6671C267.658 72.4437 267.658 71.2019 267.677 69.9786C267.692 66.9376 267.811 63.8966 268.032 60.8556C268.05 60.5942 268.066 60.3641 268.084 60.1262C268.22 58.1892 268.288 56.6757 267.93 55.3504C267.71 54.3978 267.234 53.5233 266.555 52.82C266.362 52.5838 266.146 52.3674 265.91 52.1743C265.768 52.0361 265.614 51.911 265.45 51.8005C265.01 51.4379 264.545 51.1085 264.057 50.815C264.023 50.7967 263.973 50.7627 263.939 50.7471C260.693 48.7421 256.718 47.9264 252.946 48.2663C250.027 48.5277 246.985 49.5236 245.202 51.8501C244.301 53.0238 243.775 54.4328 242.908 55.6065C241.805 57.1018 240.325 58.0193 238.661 58.699C234.602 60.3118 229.437 60.3981 225.82 63.0304C223.22 64.8995 221.691 67.958 220.928 71.0661C220.159 74.2914 220.13 77.6486 220.841 80.887C221.607 84.2853 223.152 87.4222 224.307 90.7081C225.462 93.9939 226.191 97.5726 225.258 100.919C224.631 103.214 223.254 105.2 222.064 107.292C221.845 107.681 221.623 108.076 221.419 108.481C220.204 110.86 219.422 113.544 219.608 116.211Z" fill="#1A2E35"/>
<path d="M269.024 141.509C280.44 144.688 293.503 127.069 293.503 127.069C293.503 127.069 291.582 126.024 289.407 117.944C287.233 109.864 288.252 95.957 288.252 95.957L271.47 109.482L265.117 114.613C265.219 116.516 264.811 119.057 264.215 121.596C263.37 125.108 262.322 128.569 261.079 131.96C261.079 131.96 257.608 138.333 269.024 141.509Z" fill="#FFBE9D"/>
<path d="M264.216 121.597C265.421 122.135 266.72 122.43 268.039 122.465C277.621 122.923 285.077 103.809 285.077 103.809L271.471 109.484L265.117 114.615C265.219 116.518 264.811 119.048 264.216 121.597Z" fill="#FF7878" fill-opacity="0.2"/>
<g style="mix-blend-mode:multiply" opacity="0.3">
<path d="M264.216 121.597C265.421 122.135 266.72 122.43 268.039 122.465C277.621 122.923 285.077 103.809 285.077 103.809L271.471 109.484L265.117 114.615C265.219 116.518 264.811 119.048 264.216 121.597Z" fill="#FF7878" fill-opacity="0.1"/>
</g>
<path d="M244.867 81.3793C244.935 82.6184 245.037 83.826 245.157 84.9971C245.419 87.4779 245.803 89.807 246.177 91.7597C246.525 93.6033 246.984 95.4242 247.551 97.2126C248.809 100.985 251.137 105.878 254.773 109.703C257.59 112.659 261.192 114.97 265.677 115.616C275.971 117.127 284.533 108.558 287.879 99.6934C291.224 90.8291 291.295 84.1476 291.295 84.1476C291.295 84.1476 291.556 52.5176 264.54 52.779C247.162 52.9201 244.188 68.5104 244.867 81.3793Z" fill="#FFBE9D"/>
<path d="M264.991 57.5811C263.031 58.0595 260.969 57.7666 258.965 58.0045C254.605 58.5273 250.862 61.5596 248.474 65.2532C246.085 68.9469 244.888 73.2549 243.842 77.521C243.701 78.0987 243.542 78.7104 243.113 79.1234C242.685 79.5364 241.885 79.6175 241.545 79.1234C241.404 78.8789 241.333 78.6004 241.339 78.3183C240.972 72.3074 242.269 66.3118 245.086 60.9898C245.985 59.2985 247.049 57.6699 248.463 56.3812C250.395 54.6193 252.885 53.5842 255.405 52.8941C259.236 51.8442 263.228 51.5153 267.179 51.9243C271.23 52.353 267.022 57.087 264.991 57.5811Z" fill="#1A2E35"/>
<path d="M285.082 80.7768C285.082 80.7768 289.565 68.9195 295.202 72.1008C300.84 75.2821 300.408 92.7779 292.745 92.4904C285.082 92.2028 285.082 90.3208 285.082 90.3208V80.7768Z" fill="#FFBE9D"/>
<path d="M288.72 79.5654C288.955 78.1564 289.392 76.5123 290.746 76.0051C291.728 75.6392 292.836 76.0495 293.694 76.6717C296.148 78.4806 296.95 81.8998 296.307 84.8615C296.033 86.1241 295.502 87.3788 294.525 88.2336C293.547 89.0884 292.063 89.4543 290.897 88.8714C290.113 88.4767 289.564 87.7161 289.172 86.9293" stroke="#453239" stroke-width="0.29" stroke-linecap="round" stroke-linejoin="round"/>
<path d="M292.497 76.0391C292.497 76.0391 289.431 79.9994 290.145 88.2938" stroke="#453239" stroke-width="0.29" stroke-linecap="round" stroke-linejoin="round"/>
<g style="mix-blend-mode:multiply" opacity="0.2">
<path d="M278.873 83.6016C281.676 83.6024 284.369 84.6903 286.387 86.6364C288.404 88.5826 289.588 91.2353 289.69 94.0368C289.183 95.952 288.579 97.8401 287.879 99.6937C287.662 100.271 287.419 100.846 287.158 101.419C286.143 102.629 284.875 103.601 283.443 104.267C282.012 104.934 280.452 105.279 278.873 105.277C275.999 105.277 273.243 104.135 271.211 102.103C269.179 100.07 268.037 97.3138 268.037 94.4394C268.037 93.0162 268.317 91.6068 268.862 90.2919C269.406 88.977 270.205 87.7823 271.211 86.7759C272.217 85.7696 273.411 84.9711 274.726 84.4265C276.041 83.8818 277.45 83.6016 278.873 83.6016V83.6016Z" fill="#FFA2A2"/>
</g>
<g style="mix-blend-mode:multiply" opacity="0.2">
<path d="M246.176 91.7615C246.525 93.6051 246.984 95.4259 247.551 97.2144C248.808 100.986 251.137 105.88 254.773 109.704C256.507 107.739 257.461 105.205 257.454 102.584C257.456 101.16 257.177 99.7493 256.633 98.4333C256.09 97.1173 255.292 95.9217 254.285 94.9147C253.278 93.9077 252.083 93.1092 250.767 92.565C249.452 92.0208 248.042 91.7415 246.618 91.7432C246.471 91.7398 246.323 91.7459 246.176 91.7615V91.7615Z" fill="#FFA2A2"/>
</g>
<path d="M274.286 74.3072C275.365 74.6654 276.52 75.2719 276.85 76.3645C272.436 76.2601 268.031 76.8161 263.782 78.014C262.501 78.3748 260.123 77.9669 261.126 76.056C261.649 75.0862 263.46 74.749 264.399 74.4275C267.591 73.3012 271.066 73.259 274.286 74.3072V74.3072Z" fill="#1A2E35"/>
<path d="M244.867 81.3793C244.935 82.6183 245.037 83.826 245.157 84.9971C246.496 84.362 247.868 83.801 249.268 83.3163C250.525 82.8746 252.24 81.1754 250.314 80.1795C249.344 79.6567 247.663 80.4409 246.694 80.7232C246.07 80.8986 245.46 81.1178 244.867 81.3793V81.3793Z" fill="#1A2E35"/>
<path d="M260.515 99.4737C260.552 99.4676 260.586 99.4504 260.613 99.4242C260.64 99.3981 260.659 99.3642 260.666 99.3273C260.679 99.2778 260.673 99.2251 260.648 99.1803C260.623 99.1355 260.582 99.102 260.533 99.0869C259.618 98.8259 258.769 98.3733 258.042 97.7589C257.832 97.6023 257.66 97.3993 257.54 97.1655C257.308 96.6427 257.585 96.0128 257.854 95.4089C257.917 95.2704 257.977 95.1318 258.032 94.9932C258.944 92.7451 258.061 90.1233 257.188 88.0896C256.282 85.975 255.26 83.912 254.127 81.9099C254.115 81.8875 254.099 81.8678 254.079 81.852C254.059 81.8362 254.036 81.8248 254.011 81.8184C253.987 81.812 253.961 81.8108 253.936 81.8148C253.911 81.8189 253.887 81.8282 253.866 81.842C253.826 81.8713 253.798 81.9137 253.787 81.9616C253.776 82.0095 253.783 82.0598 253.806 82.1034C254.932 84.0929 255.947 86.1427 256.848 88.2438C257.739 90.335 258.536 92.7322 257.689 94.826C257.635 94.9567 257.574 95.0874 257.514 95.2286C257.222 95.8821 256.892 96.6219 257.201 97.3198C257.343 97.6108 257.551 97.8641 257.81 98.0595C258.576 98.7065 259.472 99.1832 260.436 99.458C260.461 99.4693 260.488 99.4747 260.515 99.4737Z" fill="#453239"/>
<path d="M268.3 82.1847C268.081 82.1788 267.863 82.2226 267.663 82.3128C267.565 82.3562 267.486 82.432 267.438 82.5274C267.391 82.6227 267.378 82.7317 267.401 82.8356C267.446 82.9205 267.486 83.0078 267.522 83.097C267.613 83.5257 266.67 84.0119 266.372 84.2315C265.863 84.5599 265.432 84.9952 265.109 85.5071C264.994 85.7136 264.986 86.03 265.305 86.0012C265.672 85.9599 266.027 85.8471 266.351 85.6692C267.062 85.3242 267.746 84.9268 268.486 84.6236C269.237 84.3326 270.014 84.113 270.807 83.9675C272.129 83.7061 273.405 83.7766 274.746 83.8132C274.865 83.8141 274.985 83.8046 275.104 83.7845C275.263 83.761 275.443 83.7087 275.501 83.5623C275.516 83.5125 275.518 83.46 275.507 83.4092C275.496 83.3585 275.472 83.3113 275.438 83.2722C275.366 83.1898 275.277 83.1239 275.177 83.0788C274.202 82.556 272.879 82.3965 271.779 82.2736C270.623 82.157 269.461 82.1272 268.3 82.1847V82.1847Z" fill="#1A2E35"/>
<path d="M248.853 88.0784C248.671 88.0811 248.491 88.1277 248.33 88.2143C248.256 88.2582 248.2 88.3279 248.174 88.4103C248.147 88.4928 248.152 88.5821 248.187 88.6613C248.236 88.729 248.282 88.7998 248.323 88.873C248.453 89.2233 247.737 89.6572 247.52 89.8663C247.148 90.1674 246.854 90.5539 246.663 90.993C246.595 91.1707 246.629 91.4243 246.89 91.3956C247.185 91.3463 247.467 91.2358 247.716 91.0714C248.26 90.7524 248.777 90.3917 249.35 90.1173C249.937 89.84 250.549 89.622 251.179 89.4664C252.243 89.205 253.307 89.1894 254.423 89.1554C254.521 89.1517 254.619 89.1384 254.715 89.1161C254.846 89.0899 254.977 89.0376 255.013 88.9148C255.019 88.8711 255.014 88.8268 254.999 88.7855C254.984 88.7441 254.959 88.7069 254.927 88.677C254.858 88.6137 254.779 88.5631 254.692 88.5279C253.814 88.1306 252.698 88.0678 251.778 88.0051C250.803 87.9559 249.825 87.9804 248.853 88.0784Z" fill="#1A2E35"/>
<path d="M270.326 97.6954C270.326 97.6954 265.41 103.695 257.893 102.401" stroke="#453239" stroke-width="0.28" stroke-linecap="round" stroke-linejoin="round"/>
<path d="M267.002 102.578C267.002 102.578 264.326 104.202 261.362 104.129" stroke="#453239" stroke-width="0.29" stroke-linecap="round" stroke-linejoin="round"/>
<path d="M287.725 81.3825C287.693 81.6648 287.573 81.9299 287.383 82.1406C287.043 82.4386 286.484 82.3105 286.16 81.9994C285.864 81.6566 285.64 81.2574 285.504 80.8258C283.935 77.0851 280.391 74.6435 277.362 71.938C272.872 67.9386 269.272 63.0404 266.796 57.5607C265.902 55.5793 265.175 53.203 266.239 51.3052C267.371 49.2898 270.052 48.7279 272.352 48.971C275.82 49.3343 279.035 51.0099 281.829 53.0959C284.942 55.4146 287.688 58.3239 289.298 61.8712C292.288 68.4351 289.147 74.8317 287.725 81.3825Z" fill="#1A2E35"/>
<path d="M495.585 183.754L499.644 184.41L510.495 173.502L511.802 165.398C511.802 165.398 518.135 166.026 515.683 176.513C513.232 187.001 514.463 184.429 514.463 184.429C514.463 184.429 527.771 186.635 528.691 187.973C529.36 188.943 527.583 202.23 526.561 209.429C526.038 213.053 523.289 216.053 519.792 216.362C519.304 216.412 518.812 216.399 518.328 216.323C515.006 215.787 498.465 210.339 498.465 210.339L491.458 209.205L495.585 183.754Z" fill="#FFE376"/>
<path d="M484.331 179.648L482.336 207.807L489.286 208.934L493.685 181.737L484.331 179.648Z" fill="#FFE376"/>
<path d="M40.833 221.798C40.8302 224.102 41.7423 226.312 43.3685 227.943C44.9947 229.574 47.2019 230.492 49.5048 230.495C51.8078 230.498 54.0175 229.586 55.6481 227.959C57.2787 226.333 58.1967 224.125 58.2002 221.822C58.203 219.519 57.291 217.308 55.6648 215.678C54.0386 214.047 51.8313 213.128 49.5284 213.125C47.2254 213.122 45.0157 214.034 43.3851 215.661C41.7544 217.287 40.8365 219.495 40.833 221.798Z" fill="#66CCFF"/>
<path d="M17.4744 208.246C15.3897 203.927 17.2003 198.735 21.5185 196.65C25.8368 194.565 31.0273 196.376 33.112 200.695C35.1967 205.014 33.3862 210.206 29.068 212.291C24.7498 214.376 19.5591 212.565 17.4744 208.246Z" fill="#66CCFF"/>
<path d="M25.0716 250.7C20.2765 250.693 16.3952 246.457 16.4025 241.238C16.4098 236.019 20.3029 231.794 25.098 231.8C29.8931 231.807 33.7744 236.043 33.7671 241.262C33.7598 246.481 29.8667 250.707 25.0716 250.7Z" fill="#66CCFF"/>
<path d="M27.7232 240.103C28.0944 240.649 33.8703 237.368 40.6238 232.783C47.3773 228.198 52.5496 224.024 52.1785 223.477C51.8074 222.931 46.0339 226.212 39.2778 230.797C32.5218 235.382 27.3521 239.556 27.7232 240.103Z" fill="#66CCFF"/>
<path d="M27.0316 203.801C26.6265 204.324 31.0879 208.454 36.9893 213.028C42.8908 217.603 48.0107 220.891 48.4132 220.369C48.8157 219.846 44.3596 215.716 38.4555 211.138C32.5515 206.561 27.4367 203.278 27.0316 203.801Z" fill="#66CCFF"/>
<path d="M196.071 10.3208C197.276 7.44538 199.529 5.06661 202.177 3.4093C204.769 1.78598 207.825 0.79514 210.877 1.00688C212.502 1.12633 214.085 1.57255 215.533 2.31863C216.981 3.0647 218.263 4.09537 219.304 5.34891C220.526 6.85601 221.367 8.63607 221.755 10.5378C223.03 9.32174 224.557 8.4007 226.227 7.84004C227.776 7.33745 229.411 7.15276 231.034 7.29694C232.656 7.44112 234.233 7.9112 235.67 8.67914C238.359 10.1352 240.411 12.6003 241.733 15.3634C243.082 18.1813 243.72 21.3756 243.197 24.468C242.541 28.3237 240.636 32.2004 237.766 34.8588C234.737 37.6663 230.639 39.4544 226.648 40.5157C219.936 42.3011 211.165 44.4368 211.165 44.4368C211.165 44.4368 206.199 37.8363 201.471 32.7389C198.667 29.704 196.16 26.0025 195.102 22.0213C194.101 18.2231 194.563 13.9282 196.071 10.3208Z" fill="#FF5B5B"/>
<path fill-rule="evenodd" clip-rule="evenodd" d="M459.8 61.1623L468.903 70.3689L472.969 68.3953C473.599 68.0895 474.276 67.9091 474.77 68.3953L483.223 76.9406C483.714 77.4399 483.63 78.1797 483.223 78.7418L481.207 82.7883L490.311 91.9924C491.164 92.8603 491.64 94.0309 491.634 95.2486C491.627 96.4662 491.139 97.6319 490.277 98.4909L472.408 116.172C471.539 117.025 470.368 117.5 469.15 117.494C467.932 117.487 466.767 116.999 465.908 116.136L435.407 85.2899C434.553 84.4219 434.077 83.2509 434.084 82.0331C434.091 80.8152 434.58 79.6497 435.444 78.7914L453.313 61.1126C454.181 60.2586 455.351 59.7828 456.568 59.7891C457.786 59.7955 458.951 60.2836 459.81 61.1466L459.8 61.1623ZM489.919 88.087L485.682 83.8025C485.591 83.7122 485.468 83.6615 485.34 83.6615C485.211 83.6615 485.088 83.7122 484.997 83.8025L484.135 84.6546C484.044 84.7457 483.994 84.8688 483.994 84.9971C483.994 85.1254 484.044 85.2485 484.135 85.3396L488.371 89.6213C488.416 89.6664 488.47 89.7022 488.528 89.7266C488.587 89.751 488.65 89.7635 488.714 89.7635C488.777 89.7635 488.84 89.751 488.899 89.7266C488.958 89.7022 489.011 89.6664 489.056 89.6213L489.919 88.7692C490.009 88.6781 490.06 88.555 490.06 88.4268C490.06 88.2985 490.009 88.1754 489.919 88.0843V88.087ZM473.531 78.0778C474.871 79.4311 475.93 81.0358 476.648 82.7997C477.365 84.5636 477.727 86.4519 477.713 88.3562C477.705 90.2606 477.321 92.1447 476.583 93.9004C475.845 95.6562 474.768 97.249 473.414 98.5876C472.06 99.9268 470.456 100.986 468.692 101.703C466.929 102.421 465.041 102.784 463.137 102.77C461.233 102.762 459.349 102.378 457.593 101.64C455.838 100.901 454.245 99.8232 452.908 98.4674C451.568 97.1141 450.509 95.5094 449.791 93.7455C449.074 91.9816 448.712 90.0931 448.726 88.1888C448.733 86.284 449.117 84.3995 449.855 82.6436C450.594 80.8876 451.672 79.2951 453.028 77.9575C454.38 76.6176 455.984 75.5582 457.747 74.8405C459.511 74.1227 461.398 73.7606 463.302 73.7751C465.206 73.7829 467.09 74.167 468.846 74.9054C470.601 75.6438 472.194 76.722 473.531 78.0778V78.0778ZM474.809 88.3405C474.819 86.8184 474.529 85.3094 473.954 83.8999C473.38 82.4905 472.533 81.2084 471.461 80.1272C470.392 79.0439 469.12 78.1827 467.717 77.5927C466.314 77.0028 464.808 76.6959 463.286 76.6897C461.765 76.6788 460.256 76.969 458.847 77.5437C457.438 78.1184 456.157 78.9663 455.077 80.0383C453.993 81.1067 453.131 82.379 452.541 83.7818C451.951 85.1847 451.644 86.6904 451.637 88.2125C451.628 89.7347 451.919 91.2439 452.494 92.6534C453.069 94.0629 453.916 95.3449 454.988 96.4258C456.057 97.5092 457.329 98.3706 458.731 98.9606C460.134 99.5505 461.639 99.8572 463.161 99.8632C464.683 99.8733 466.191 99.5827 467.601 99.008C469.01 98.4334 470.292 97.586 471.373 96.5146C472.456 95.4457 473.317 94.1734 473.906 92.7706C474.496 91.3678 474.803 89.8622 474.809 88.3405V88.3405ZM469.465 82.0668C468.646 81.2377 467.672 80.5784 466.598 80.1263C465.524 79.6741 464.371 79.4381 463.206 79.4318C462.041 79.4255 460.886 79.6489 459.807 80.0894C458.729 80.5298 457.747 81.1788 456.919 81.9989C456.091 82.8181 455.432 83.7926 454.98 84.8668C454.528 85.941 454.292 87.0937 454.286 88.259C454.28 89.4244 454.504 90.5795 454.945 91.6583C455.385 92.7372 456.034 93.7185 456.854 94.5463C458.507 96.2166 460.756 97.162 463.106 97.1748C465.456 97.1875 467.715 96.2665 469.386 94.6142C470.215 93.7952 470.874 92.8207 471.326 91.7467C471.778 90.6726 472.014 89.52 472.021 88.3546C472.027 87.1893 471.804 86.0341 471.363 84.9552C470.923 83.8763 470.274 82.8947 469.454 82.0668H469.465ZM469.203 87.8621C469.034 87.6905 468.833 87.5541 468.611 87.4605C468.389 87.367 468.151 87.3182 467.91 87.3169C467.669 87.3157 467.43 87.3621 467.207 87.4534C466.984 87.5447 466.781 87.6792 466.611 87.8491C466.439 88.0182 466.303 88.2195 466.209 88.4416C466.116 88.6636 466.067 88.902 466.066 89.1429C466.064 89.3839 466.111 89.6226 466.202 89.8456C466.293 90.0686 466.428 90.2713 466.598 90.4422C466.767 90.6138 466.968 90.7503 467.19 90.8439C467.412 90.9374 467.65 90.9861 467.891 90.9873C468.132 90.9885 468.371 90.9422 468.594 90.8509C468.817 90.7596 469.019 90.6252 469.19 90.4553C469.362 90.2862 469.498 90.0847 469.592 89.8627C469.685 89.6407 469.734 89.4024 469.735 89.1615C469.737 88.9205 469.69 88.6816 469.599 88.4587C469.508 88.2357 469.373 88.033 469.203 87.8621V87.8621ZM458.569 67.768C458.345 67.5459 458.043 67.4213 457.728 67.4213C457.414 67.4213 457.111 67.5459 456.888 67.768C456.666 67.9918 456.541 68.2943 456.541 68.6096C456.541 68.925 456.666 69.2276 456.888 69.4514C457.112 69.6743 457.414 69.7994 457.73 69.7994C458.045 69.7994 458.348 69.6743 458.571 69.4514C458.794 69.2284 458.919 68.9261 458.919 68.6109C458.919 68.2958 458.794 67.9935 458.571 67.7705L458.569 67.768Z" fill="#5972CA"/>
<path fill-rule="evenodd" clip-rule="evenodd" d="M21.1852 336.976L15.1478 325.521L10.6838 326.227C9.99124 326.337 9.29078 326.313 8.96408 325.704L3.35797 315.07C3.03128 314.453 3.32661 313.763 3.88069 313.353L6.99867 310.051L0.963899 298.599C0.399078 297.52 0.284091 296.262 0.64403 295.098C1.00397 293.935 1.8096 292.962 2.8849 292.391L25.1186 280.667C26.1971 280.102 27.4554 279.987 28.6185 280.347C29.7815 280.707 30.7549 281.512 31.3258 282.588L51.5523 320.962C52.1171 322.041 52.2321 323.299 51.8721 324.463C51.5122 325.626 50.7066 326.599 49.6313 327.171L27.395 338.894C26.3169 339.459 25.059 339.574 23.8964 339.214C22.7337 338.854 21.7609 338.049 21.1904 336.973L21.1852 336.976ZM0.187675 302.455L2.99727 307.782C3.0573 307.895 3.15967 307.98 3.28204 308.019C3.40441 308.057 3.53688 308.045 3.65066 307.986L4.72225 307.419C4.77859 307.389 4.82852 307.349 4.86927 307.3C4.91001 307.251 4.94075 307.195 4.95968 307.134C4.97862 307.074 4.98542 307.01 4.97965 306.946C4.97389 306.883 4.9557 306.822 4.92612 306.765L2.11653 301.435C2.05655 301.322 1.95403 301.237 1.8315 301.199C1.70897 301.161 1.57647 301.174 1.46313 301.234L0.388926 301.799C0.275427 301.859 0.190555 301.962 0.152836 302.085C0.115117 302.208 0.12762 302.341 0.187675 302.455V302.455ZM12.9602 316.793C12.0706 315.109 11.5222 313.265 11.3469 311.369C11.1715 309.472 11.3725 307.559 11.9383 305.74C12.498 303.92 13.4122 302.228 14.6282 300.763C15.8442 299.297 17.338 298.086 19.0237 297.2C20.7076 296.311 22.5505 295.762 24.4467 295.587C26.3429 295.411 28.2552 295.611 30.0739 296.176C31.8949 296.734 33.5876 297.647 35.0547 298.862C36.5218 300.077 37.7345 301.57 38.6229 303.255C39.5131 304.939 40.0618 306.782 40.2376 308.678C40.4134 310.575 40.2128 312.488 39.6474 314.307C39.0863 316.127 38.1713 317.818 36.9549 319.284C35.7386 320.749 34.2448 321.96 32.5594 322.847C30.8758 323.737 29.0329 324.286 27.1365 324.462C25.2402 324.638 23.3278 324.437 21.5092 323.872C19.6895 323.31 17.9984 322.395 16.5331 321.179C15.0678 319.962 13.8572 318.468 12.9707 316.782L12.9602 316.793ZM14.7192 306.598C14.2667 308.052 14.1061 309.58 14.2465 311.096C14.3869 312.612 14.8255 314.085 15.5372 315.431C16.245 316.778 17.212 317.972 18.3827 318.944C19.5533 319.916 20.9046 320.647 22.3587 321.095C23.812 321.547 25.3404 321.708 26.8559 321.567C28.3714 321.427 29.8443 320.989 31.1899 320.277C32.5372 319.569 33.7312 318.602 34.7031 317.43C35.6751 316.259 36.4059 314.907 36.8535 313.452C37.3053 311.999 37.4656 310.471 37.3253 308.955C37.1849 307.44 36.7466 305.967 36.0355 304.622C35.3271 303.275 34.3595 302.081 33.1885 301.109C32.0174 300.136 30.6658 299.405 29.2114 298.957C27.7586 298.505 26.2306 298.344 24.7154 298.484C23.2002 298.625 21.7278 299.064 20.3828 299.775C19.0359 300.483 17.8421 301.45 16.8701 302.621C15.8982 303.792 15.1672 305.144 14.7192 306.598V306.598ZM18.0096 314.158C19.1064 316.237 20.9838 317.795 23.2289 318.49C25.474 319.185 27.9031 318.96 29.9824 317.865C31.0122 317.322 31.925 316.581 32.6686 315.685C33.4122 314.789 33.9721 313.756 34.3163 312.644C34.6604 311.531 34.7821 310.362 34.6744 309.203C34.5667 308.043 34.2317 306.917 33.6885 305.887C32.5917 303.808 30.7144 302.25 28.4693 301.555C26.2242 300.859 23.795 301.085 21.7157 302.18C19.6365 303.277 18.078 305.155 17.383 307.401C16.688 309.648 16.9134 312.078 18.0096 314.158ZM19.9359 308.684C20.0476 308.897 20.2004 309.086 20.3854 309.24C20.5704 309.395 20.784 309.511 21.0139 309.582C21.2438 309.654 21.4856 309.679 21.7253 309.657C21.965 309.634 22.198 309.565 22.4109 309.452C22.6245 309.341 22.8139 309.188 22.9682 309.003C23.1225 308.817 23.2388 308.603 23.3102 308.373C23.3816 308.143 23.4068 307.901 23.3843 307.661C23.3618 307.421 23.2922 307.187 23.1793 306.974C23.0675 306.761 22.9147 306.571 22.7295 306.417C22.5443 306.263 22.3305 306.146 22.1002 306.075C21.87 306.004 21.6279 305.978 21.3879 306.001C21.1479 306.023 20.9146 306.093 20.7016 306.206C20.4883 306.318 20.2991 306.471 20.1451 306.656C19.991 306.842 19.8751 307.056 19.8039 307.286C19.7328 307.516 19.7078 307.758 19.7305 307.998C19.7531 308.238 19.8229 308.471 19.9359 308.684V308.684ZM24.2744 331.003C24.4216 331.281 24.6732 331.49 24.9741 331.583C25.2749 331.676 25.6004 331.646 25.8791 331.499C26.158 331.353 26.3671 331.101 26.4607 330.8C26.5543 330.499 26.5247 330.173 26.3783 329.894C26.2306 329.616 25.9785 329.407 25.6772 329.314C25.376 329.221 25.0501 329.251 24.771 329.398C24.4926 329.545 24.284 329.797 24.1909 330.097C24.0978 330.398 24.1278 330.724 24.2744 331.003V331.003Z" fill="#5972CA"/>
<defs>
<linearGradient id="paint0_linear_1069_941" x1="303.104" y1="482.855" x2="294.354" y2="429.131" gradientUnits="userSpaceOnUse">
<stop offset="0.01" stop-color="#66CCFF"/>
<stop offset="0.13" stop-color="#6CC7DB"/>
<stop offset="0.41" stop-color="#7BBC80"/>
<stop offset="0.53" stop-color="#82B75A"/>
<stop offset="1" stop-color="#82B75A"/>
</linearGradient>
<linearGradient id="paint1_linear_1069_941" x1="221.213" y1="187.161" x2="211.809" y2="60.8213" gradientUnits="userSpaceOnUse">
<stop offset="0.01" stop-color="#66CCFF"/>
<stop offset="0.13" stop-color="#6CC7DB"/>
<stop offset="0.41" stop-color="#7BBC80"/>
<stop offset="0.53" stop-color="#82B75A"/>
<stop offset="1" stop-color="#82B75A"/>
</linearGradient>
<linearGradient id="paint2_linear_1069_941" x1="341.128" y1="186.32" x2="330.322" y2="99.9325" gradientUnits="userSpaceOnUse">
<stop offset="0.01" stop-color="#66CCFF"/>
<stop offset="0.13" stop-color="#6CC7DB"/>
<stop offset="0.41" stop-color="#7BBC80"/>
<stop offset="0.53" stop-color="#82B75A"/>
<stop offset="1" stop-color="#82B75A"/>
</linearGradient>
<linearGradient id="paint3_linear_1069_941" x1="255.836" y1="230.709" x2="252.151" y2="172.213" gradientUnits="userSpaceOnUse">
<stop offset="0.01" stop-color="#66CCFF"/>
<stop offset="0.13" stop-color="#6CC7DB"/>
<stop offset="0.41" stop-color="#7BBC80"/>
<stop offset="0.53" stop-color="#82B75A"/>
<stop offset="1" stop-color="#82B75A"/>
</linearGradient>
</defs>
</svg>
